<?xml version="1.0" standalone="no"?>
<!DOCTYPE svg PUBLIC "-//W3C//DTD SVG 20010904//EN"
 "http://www.w3.org/TR/2001/REC-SVG-20010904/DTD/svg10.dtd">
<svg version="1.0" xmlns="http://www.w3.org/2000/svg"
 width="512.000000pt" height="512.000000pt" viewBox="0 0 512.000000 512.000000"
 preserveAspectRatio="xMidYMid meet">
<metadata>
Created by potrace 1.14, written by Peter Selinger 2001-2017
</metadata>
<g transform="translate(0.000000,512.000000) scale(0.100000,-0.100000)"
fill="#000000" stroke="none">
<path d="M2439 4727 c-107 -103 -402 -386 -613 -587 -115 -111 -176 -169 -397
-381 -101 -97 -200 -191 -219 -209 -29 -27 -208 -198 -465 -445 -29 -27 -130
-124 -225 -215 -231 -221 -266 -254 -402 -386 l-117 -113 3 -46 c3 -54 34 -92
82 -101 51 -9 72 3 173 101 53 51 119 114 146 140 28 26 131 124 229 219 98
94 200 191 226 216 292 279 400 382 439 419 25 24 129 124 231 221 102 98 205
197 230 220 25 23 95 90 155 149 192 184 484 463 567 541 l79 75 73 -70 c40
-38 155 -149 256 -245 100 -96 204 -195 229 -220 53 -51 389 -371 461 -440
100 -95 439 -420 545 -521 60 -59 133 -128 160 -154 28 -26 128 -122 224 -214
95 -91 199 -190 230 -219 31 -30 90 -87 132 -127 105 -103 153 -118 209 -67
58 52 52 111 -19 180 -55 54 -406 390 -467 448 -23 22 -123 118 -224 214 -100
96 -201 193 -224 214 -41 39 -351 335 -546 522 -58 56 -127 123 -155 149 -27
26 -133 127 -234 224 -101 97 -200 191 -220 210 -94 89 -396 378 -410 394 -8
9 -18 17 -21 17 -3 0 -57 -51 -121 -113z"/>
<path d="M3361 4467 c-29 -14 -60 -78 -54 -111 8 -41 46 -77 88 -85 22 -3 178
-6 348 -5 l307 1 1 -26 c0 -14 1 -154 0 -311 0 -157 2 -299 5 -316 11 -72 88
-113 152 -80 58 30 57 23 58 504 l1 442 -441 -1 c-311 0 -448 -4 -465 -12z"/>
<path d="M705 2336 c-17 -7 -39 -25 -48 -39 -16 -24 -17 -109 -17 -1162 l0
-1135 745 0 c410 0 745 3 746 8 0 4 1 315 2 692 l2 685 426 1 425 1 0 -694 -1
-693 748 0 747 0 0 1084 0 1084 -26 31 c-46 54 -132 51 -170 -7 -16 -25 -18
-97 -18 -1002 l-1 -975 -532 -1 -533 0 0 693 0 693 -640 0 -640 0 0 -693 0
-694 -533 1 -533 0 0 995 c1 548 -2 1015 -5 1039 -11 76 -77 117 -144 88z"/>
</g>
</svg>
